<svg width="201" height="48" viewBox="0 0 201 48" fill="none" xmlns="http://www.w3.org/2000/svg">
<path d="M51.2428 15.8918L53.2293 15.4459V2.59452L51.2428 2.14858V1.21615H57.4455C63.0402 1.21615 65.2293 3.89182 65.2293 8.59454C65.2293 13.8648 62.9185 16.7837 57.6888 16.7837H51.2428V15.8918ZM57.7293 15.5675C61.1347 15.5675 62.8374 13.9864 62.8374 8.9594C62.8374 3.20264 60.7699 2.47291 57.1212 2.47291H55.459V15.5675H57.7293Z" fill="#020202"/>
<path d="M66.648 10.9459C66.648 7.25668 68.9993 5.06749 71.9183 5.06749C75.2426 5.06749 76.621 7.41885 76.621 11.027H68.7966C68.8777 14.108 70.3372 15.6486 72.6885 15.6486C74.3102 15.6486 75.2426 15.3243 76.0534 15.0405V16.054C75.3237 16.4999 74.148 17.1081 72.2426 17.1081C68.3102 17.0675 66.648 14.5135 66.648 10.9459ZM74.2696 9.72966C74.2696 7.33777 73.4588 6.28371 71.7966 6.28371C70.0129 6.28371 68.9588 7.41884 68.7966 9.89182L74.2696 9.72966Z" fill="#020202"/>
<path d="M77.8782 16.5002L77.7161 13.4191H78.8107L79.4188 15.4056C79.8647 15.6488 80.5944 15.8921 81.6485 15.8921C83.0674 15.8921 84.0809 15.3245 84.0809 14.1488C84.0809 12.9732 83.5134 12.6083 81.8917 12.0813L80.6755 11.6759C78.8917 11.1083 77.8782 10.1353 77.8782 8.43262C77.8782 6.64883 79.2566 5.10829 82.0134 5.10829C83.3107 5.10829 84.4458 5.31099 85.2161 5.55423V8.47316H84.2026L83.6755 6.72991C83.3107 6.48667 82.7431 6.36504 81.8512 6.36504C80.635 6.36504 79.662 6.81099 79.662 7.98667C79.662 8.95964 80.2296 9.44613 81.8917 9.97316L83.108 10.3786C85.1755 11.0678 85.9458 12.0002 85.9458 13.6218C85.9458 15.5678 84.4458 17.1488 81.4863 17.1488C80.2296 17.1083 78.8917 16.8245 77.8782 16.5002Z" fill="#020202"/>
<path d="M86.8375 16.054L88.4997 15.6891V6.85123L86.7159 6.48637V5.63501L90.324 5.10799L90.5672 5.2296V15.6485L92.2699 16.0134V16.7837H86.878V16.054H86.8375ZM88.1753 1.98636C88.1753 1.29717 88.7429 0.729601 89.4726 0.729601C90.2024 0.729601 90.7699 1.29717 90.7699 1.98636C90.7699 2.63501 90.2024 3.24312 89.4726 3.24312C88.7429 3.24312 88.1753 2.63501 88.1753 1.98636Z" fill="#020202"/>
<path d="M92.7161 18.6891C92.7161 17.5134 93.6485 16.6215 94.9053 16.0539V15.9323C94.1755 15.6485 93.689 15.1215 93.689 14.3917C93.689 13.5404 94.2161 12.7701 95.1485 11.9593C94.1755 11.3917 93.5269 10.4188 93.5269 8.95931C93.5269 6.40525 95.5134 5.06741 97.9458 5.06741C98.7566 5.06741 99.5269 5.18903 100.176 5.47281L103.54 4.98633V6.52687L101.392 6.40525C101.959 6.97282 102.324 7.70255 102.324 8.75661C102.324 11.3107 100.338 12.6485 97.9053 12.6485C97.1755 12.6485 96.4863 12.5674 95.8782 12.3647C95.4323 12.7701 95.2296 13.2566 95.2296 13.662C95.2296 14.0269 95.5134 14.3512 96.0809 14.3512H99.9323C101.757 14.3512 103.378 14.9999 103.378 17.189C103.378 19.5404 101.311 21.4864 97.3377 21.4864C94.0134 21.4458 92.7161 19.9458 92.7161 18.6891ZM101.635 17.6755C101.635 16.6215 100.946 16.2161 99.6485 16.2161H95.9188C95.1485 16.5809 94.7026 17.3512 94.7026 18.2431C94.7026 19.3377 95.5539 20.1485 97.6215 20.1485C100.419 20.1485 101.635 19.0134 101.635 17.6755ZM100.338 8.87822C100.338 7.01335 99.3242 6.24308 97.9458 6.24308C96.5269 6.24308 95.5944 7.13498 95.5944 8.83769C95.5944 10.7026 96.608 11.4728 97.9458 11.4728C99.3647 11.4728 100.338 10.6215 100.338 8.87822Z" fill="#020202"/>
<path d="M104.067 16.054L105.77 15.6891V6.85128L104.067 6.48641V5.63506L107.473 5.10803L107.716 5.22965V6.24317H107.838C108.973 5.59452 110.311 5.06749 111.689 5.06749C113.838 5.06749 114.932 5.87831 114.932 8.14858V15.6891L116.635 16.054V16.8243H111.243V16.054L112.865 15.6891V8.6756C112.865 7.09452 112.054 6.64857 110.473 6.64857C109.54 6.64857 108.689 6.89182 107.838 7.1756V15.6891L109.459 16.054V16.8243H104.067V16.054Z" fill="#020202"/>
<path d="M122.716 5.71623L124.378 5.27028C125.473 1.25676 127.905 0 129.932 0C131.513 0 132.365 0.486486 132.365 1.5C132.365 1.98649 132.041 2.51352 131.716 2.7973H130.338L130.581 1.41892C130.338 1.2973 130.054 1.17568 129.73 1.17568C128.27 1.17568 127.257 2.3919 126.486 5.27028H129.446L129.122 6.60812H126.162L123.73 16.2973C122.959 19.5 121.541 21.2838 119.149 21.2838C118.095 21.2838 117.243 20.7973 117.243 19.946C117.243 19.2973 117.649 18.8514 118.013 18.6081H119.149L118.905 20.0676H119.027C120.122 20.0676 121.054 19.5 121.662 16.9054L124.054 6.60812H122.473L122.716 5.71623Z" fill="#020202"/>
<path d="M128.27 13.0945C128.27 8.51344 131.959 5.06749 135.121 5.06749C137.675 5.06749 139.054 6.68912 139.054 9.04047C139.054 13.6216 135.567 17.0675 132.283 17.0675C129.81 17.0675 128.27 15.4459 128.27 13.0945ZM136.946 8.59452C136.946 7.01344 136.256 6.24317 134.919 6.24317C132.405 6.24317 130.338 9.93236 130.338 13.4999C130.338 15.081 131.067 15.8513 132.405 15.8513C134.959 15.8513 136.946 12.1621 136.946 8.59452Z" fill="#020202"/>
<path d="M142.622 6.60795H140.838L141.082 5.63497L144.771 5.02687L144.974 5.18903L143.838 8.91877H143.96C145.501 6.36471 147.041 4.98633 148.501 4.98633C149.433 4.98633 149.838 5.43228 149.838 6.12147C149.838 6.68903 149.474 7.45931 148.987 7.94579H147.568L147.811 6.56741C146.474 7.01336 144.73 8.83769 143.271 11.3917L141.649 16.7836H139.582L142.622 6.60795Z" fill="#020202"/>
<path d="M51.3656 38.9596L53.7575 38.4326V22.4596L51.3656 21.892V19.3785H69.2845L69.6089 25.7028H66.6899L65.4737 22.3379H59.1494V28.7839H61.8251L62.5143 26.4325H64.9061V34.0542H62.5143L61.8251 31.6217H59.1494V38.5542H65.6359L67.217 34.419H70.1764L69.8116 41.5542H51.325V38.9596H51.3656Z" fill="#020202"/>
<path d="M72.0405 27.446L70.5405 27V24.6487H78.9324V27L77.3108 27.3649L80.4324 36.5271H80.5541L83.6757 27.3649L82.0135 27V24.6487H88.7838V27L87.2838 27.446L81.973 41.5135H77.4324L72.0405 27.446Z" fill="#020202"/>
<path d="M89.0673 33.0001C89.0673 27.4866 92.5132 24.2839 97.3781 24.2839C102.486 24.2839 104.797 27.1217 104.797 33.6487H94.2159C94.4592 37.0947 96.2024 38.4731 99.1619 38.4731C101.432 38.4731 102.851 38.0677 104.027 37.6622V40.2568C102.892 40.9866 100.986 41.8785 97.8646 41.8785C91.9457 41.919 89.0673 38.5541 89.0673 33.0001ZM99.8511 31.0947C99.8511 28.1758 98.8781 27.1622 97.2159 27.1622C95.5132 27.1622 94.3781 28.2163 94.1754 31.2974L99.8511 31.0947Z" fill="#020202"/>
<path d="M105.893 39.1623L107.92 38.6758V27.973L105.852 27.446V25.0136L112.217 24.2839L112.663 24.5271V26.919H112.866C113.758 25.5001 115.217 24.2839 117.163 24.2839C117.447 24.2839 117.852 24.3649 118.014 24.4055V28.7433C117.65 28.6622 117.041 28.6217 116.595 28.6217C115.014 28.6217 113.879 28.8649 112.866 29.392V38.7163L115.339 39.2028V41.5542H105.893V39.1623Z" fill="#020202"/>
<path d="M120.689 47.4325V44.3919C121.419 44.5541 121.864 44.6352 122.432 44.6352C123.932 44.6352 124.905 44.1892 125.473 42.7703L126.081 41.1892L120.324 27.446L118.743 27V24.6487H127.297V27L125.554 27.3649L128.797 35.9595H128.919L131.756 27.3649L130.013 27V24.6487H136.986V27L135.486 27.446L129.364 43.5C128.229 46.4595 126.81 48 123.648 48C122.635 48 121.337 47.7163 120.689 47.4325Z" fill="#020202"/>
<path d="M137.919 30.4868C137.919 22.4192 143.149 18.9327 148.54 18.9327C154.459 18.9327 158.959 22.6625 158.959 30.2841C158.959 38.3517 153.77 41.9192 148.378 41.9192C142.459 41.9192 137.919 38.1084 137.919 30.4868ZM153.284 30.6895C153.284 24.5273 151.662 22.2165 148.459 22.2165C145.338 22.2165 143.676 24.8922 143.676 30.1625C143.676 36.0409 145.013 38.6355 148.459 38.6355C151.621 38.6355 153.284 35.9598 153.284 30.6895Z" fill="#020202"/>
<path d="M160.135 39.1623L162.162 38.6758V27.973L160.094 27.446V25.0136L166.459 24.2839L166.905 24.5271V26.2298H167.108C168.729 25.0947 170.432 24.2839 172.702 24.2839C175.418 24.2839 177.202 25.4595 177.202 28.5406V38.6758L179.108 39.1623V41.5136H170.554V39.1623L172.216 38.7569V30.2028C172.216 28.5406 171.405 28.0136 169.783 28.0136C168.81 28.0136 167.959 28.2568 167.108 28.5406V38.7163L168.77 39.1217V41.4731H160.135V39.1623Z" fill="#020202"/>
<path d="M180.081 33.0001C180.081 27.4866 183.527 24.2839 188.392 24.2839C193.5 24.2839 195.811 27.1217 195.811 33.6487H185.23C185.473 37.0947 187.216 38.4731 190.176 38.4731C192.446 38.4731 193.865 38.0677 195.041 37.6622V40.2568C193.905 40.9866 192 41.8785 188.878 41.8785C182.959 41.919 180.081 38.5541 180.081 33.0001ZM190.865 31.0947C190.865 28.1758 189.892 27.1622 188.23 27.1622C186.527 27.1622 185.432 28.2163 185.189 31.2974L190.865 31.0947Z" fill="#020202"/>
<path d="M33.7298 42.3649H11.4325C5.14866 42.3649 0 37.2568 0 30.9324V13.0946C0 6.81076 5.10812 1.66211 11.4325 1.66211H33.7298C40.0136 1.66211 45.1622 6.77022 45.1622 13.0946V30.9324C45.1622 37.2162 40.0136 42.3649 33.7298 42.3649ZM11.4325 3.8513C6.36488 3.8513 2.22973 7.98644 2.22973 13.054V30.8919C2.22973 35.9595 6.36488 40.0946 11.4325 40.0946H33.7298C38.7974 40.0946 42.9325 35.9595 42.9325 30.8919V13.054C42.9325 7.98644 38.7974 3.8513 33.7298 3.8513H11.4325Z" fill="#020202"/>
<path d="M11.271 36.5271L7.54129 32.7973L14.1899 26.1892C15.3251 25.0541 15.9332 23.5946 15.9332 22.0135C15.9332 20.4324 15.3251 18.9325 14.1899 17.8379L7.54129 11.2297L11.271 7.5L17.9197 14.1081C20.0278 16.2162 21.2035 19.0541 21.2035 22.0135C21.2035 25.0135 20.0278 27.8108 17.9197 29.9189L11.271 36.5271Z" fill="#020202"/>
<path d="M33.8927 36.5271L27.2441 29.9189C25.136 27.8108 23.9603 24.973 23.9603 22.0135C23.9603 19.0135 25.136 16.2162 27.2441 14.1081L33.8927 7.5L37.6225 11.2297L30.9738 17.8379C29.8387 18.973 29.2306 20.4324 29.2306 22.0135C29.2306 23.5946 29.8387 25.0946 30.9738 26.1892L37.6225 32.7973L33.8927 36.5271Z" fill="#020202"/>
<path d="M37.6224 19.3785H32.3521V24.6487H37.6224V19.3785Z" fill="#020202"/>
<path d="M194.959 21.5272H193.946V21.1623H196.378V21.5272H195.365V24.4461H194.919V21.5272H194.959Z" fill="black"/>
<path d="M199.5 22.9866C199.459 22.5407 199.459 21.9731 199.459 21.5677C199.338 21.9326 199.216 22.3785 199.054 22.8245L198.486 24.4056H198.162L197.635 22.8245C197.473 22.3785 197.351 21.9326 197.27 21.5677C197.27 21.9731 197.229 22.5407 197.189 23.0272L197.108 24.4461H196.702L196.946 21.1623H197.473L198.04 22.7434C198.162 23.1488 198.283 23.5137 198.365 23.838C198.446 23.5137 198.567 23.1488 198.729 22.7434L199.297 21.1623H199.824L200.027 24.4461H199.621L199.5 22.9866Z" fill="black"/>
</svg>
